<?xml version="1.0" encoding="utf-8"?>
<!-- Generator: Adobe Illustrator 19.0.0, SVG Export Plug-In . SVG Version: 6.00 Build 0)  -->
<svg version="1.1" id="_x30_" xmlns="http://www.w3.org/2000/svg" xmlns:xlink="http://www.w3.org/1999/xlink" x="0px" y="0px"
	 width="612px" height="792px" viewBox="0 0 612 792" style="enable-background:new 0 0 612 792;" xml:space="preserve">
<g>
	<g id="LINE_44_">
		
			<polygon style="fill:none;stroke:#808080;stroke-width:0.7087;stroke-linecap:round;stroke-linejoin:round;stroke-miterlimit:10;" points="
			144.4,-465.2 112,-465.2 112,-436.9 103.5,-436.9 103.5,-387 112,-387 112,-348.4 271.4,-348.4 271.4,-387 279.9,-387 
			279.9,-436.9 271.4,-436.9 271.4,-465.2 243,-465.2 243,-456.7 214.7,-456.7 214.7,-465.2 172.7,-465.2 172.7,-456.7 
			144.4,-456.7 		"/>
	</g>
	<g id="LINE_45_">
		
			<rect x="214.7" y="-366" style="fill:none;stroke:#808080;stroke-width:0.7087;stroke-linecap:round;stroke-linejoin:round;stroke-miterlimit:10;" width="28.3" height="8.5"/>
	</g>
	<g id="LINE_47_">
		
			<rect x="144.4" y="-366" style="fill:none;stroke:#808080;stroke-width:0.7087;stroke-linecap:round;stroke-linejoin:round;stroke-miterlimit:10;" width="28.3" height="8.5"/>
	</g>
	<g id="LINE_49_">
		
			<rect x="123.4" y="-423.3" style="fill:none;stroke:#CC6666;stroke-width:0.7087;stroke-linecap:round;stroke-linejoin:round;stroke-miterlimit:10;" width="136.6" height="22.7"/>
	</g>
</g>
<g>
	<g id="LINE_70_">
		
			<rect x="144.4" y="-124.5" style="fill:none;stroke:#808080;stroke-width:0.7087;stroke-linecap:round;stroke-linejoin:round;stroke-miterlimit:10;" width="28.3" height="8.5"/>
	</g>
	<g id="LINE_72_">
		
			<rect x="214.7" y="-124.5" style="fill:none;stroke:#808080;stroke-width:0.7087;stroke-linecap:round;stroke-linejoin:round;stroke-miterlimit:10;" width="28.3" height="8.5"/>
	</g>
	<g id="LINE_79_">
		
			<rect x="123.4" y="-81.4" style="fill:none;stroke:#CC6666;stroke-width:0.7087;stroke-linecap:round;stroke-linejoin:round;stroke-miterlimit:10;" width="136.6" height="22.7"/>
	</g>
	<g id="LINE_82_">
		
			<polygon style="fill:none;stroke:#808080;stroke-width:0.7087;stroke-linecap:round;stroke-linejoin:round;stroke-miterlimit:10;" points="
			172.7,-25.3 172.7,-16.8 214.7,-16.8 214.7,-25.3 243,-25.3 243,-16.8 271.4,-16.8 271.4,-45.1 279.9,-45.1 279.9,-95 271.4,-95 
			271.4,-133.6 112,-133.6 112,-95 103.5,-95 103.5,-45.1 112,-45.1 112,-16.8 144.4,-16.8 144.4,-25.3 		"/>
	</g>
</g>
<g>
	<g id="LINE_68_">
		
			<rect x="55.4" y="-210.8" style="fill:none;stroke:#808080;stroke-width:0.7087;stroke-linecap:round;stroke-linejoin:round;stroke-miterlimit:10;" width="8.5" height="42.5"/>
	</g>
	<g id="LINE_91_">
		
			<polygon style="fill:none;stroke:#808080;stroke-width:0.7087;stroke-linecap:round;stroke-linejoin:round;stroke-miterlimit:10;" points="
			72.9,-335.7 34.4,-335.7 34.4,-327.2 -15.5,-327.2 -15.5,-335.7 -43.9,-335.7 -43.9,-316.6 -35.4,-316.6 -35.4,-274 -43.9,-274 
			-43.9,-210.8 -35.4,-210.8 -35.4,-168.3 -43.9,-168.3 -43.9,-149.1 -15.5,-149.1 -15.5,-157.6 34.4,-157.6 34.4,-149.1 
			72.9,-149.1 		"/>
	</g>
	<g id="LINE_93_">
		
			<rect x="55.4" y="-316.6" style="fill:none;stroke:#808080;stroke-width:0.7087;stroke-linecap:round;stroke-linejoin:round;stroke-miterlimit:10;" width="8.5" height="42.5"/>
	</g>
	<g id="LINE_95_">
		
			<rect x="-31.3" y="-259.1" style="fill:none;stroke:#808080;stroke-width:0.7087;stroke-linecap:round;stroke-linejoin:round;stroke-miterlimit:10;" width="22.7" height="34"/>
	</g>
</g>
<g id="LINE_131_">
	
		<polygon style="fill:none;stroke:#808080;stroke-width:0.7087;stroke-linecap:round;stroke-linejoin:round;stroke-miterlimit:10;" points="
		560.1,-149.1 560.1,-157.6 588.5,-157.6 588.5,-168.3 597,-168.3 597,-210.8 588.5,-210.8 588.5,-274 597,-274 597,-316.6 
		588.5,-316.6 588.5,-327.1 560.1,-327.1 560.1,-335.6 531.8,-335.6 531.8,-327.1 489.8,-327.1 489.8,-335.6 461.5,-335.6 
		461.5,-327.1 429.2,-327.1 429.2,-316.6 420.7,-316.6 420.7,-274 429.2,-274 429.2,-210.8 420.7,-210.8 420.7,-168.3 429.2,-168.3 
		429.2,-157.6 461.5,-157.6 461.5,-149.1 489.8,-149.1 489.8,-157.6 531.8,-157.6 531.8,-149.1 	"/>
</g>
<g>
	<g id="LINE_158_">
		
			<polygon style="fill:none;stroke:#808080;stroke-width:0.7087;stroke-linecap:round;stroke-linejoin:round;stroke-miterlimit:10;" points="
			409.4,-316.6 417.9,-316.6 417.9,-335.7 389.6,-335.7 389.6,-327.2 339.7,-327.2 339.7,-335.7 301.1,-335.7 301.1,-149.1 
			339.7,-149.1 339.7,-157.6 389.6,-157.6 389.6,-149.1 417.9,-149.1 417.9,-168.3 409.4,-168.3 409.4,-210.8 417.9,-210.8 
			417.9,-274 409.4,-274 		"/>
	</g>
	<g id="LINE_159_">
		
			<rect x="310.2" y="-316.6" style="fill:none;stroke:#808080;stroke-width:0.7087;stroke-linecap:round;stroke-linejoin:round;stroke-miterlimit:10;" width="8.5" height="42.5"/>
	</g>
	<g id="LINE_160_">
		
			<rect x="310.2" y="-210.8" style="fill:none;stroke:#808080;stroke-width:0.7087;stroke-linecap:round;stroke-linejoin:round;stroke-miterlimit:10;" width="8.5" height="42.5"/>
	</g>
</g>
<g>
	<g id="CIRCLE">
		
			<path style="fill:none;stroke:#808080;stroke-width:0.7087;stroke-linecap:round;stroke-linejoin:round;stroke-miterlimit:10;" d="
			M259-286.1c0-2,1.6-3.6,3.6-3.6s3.6,1.6,3.6,3.6s-1.6,3.6-3.6,3.6S259-284.1,259-286.1L259-286.1z"/>
	</g>
	<g id="CIRCLE_1_">
		
			<path style="fill:none;stroke:#808080;stroke-width:0.7087;stroke-linecap:round;stroke-linejoin:round;stroke-miterlimit:10;" d="
			M121.2-286.1c0-2,1.6-3.6,3.6-3.6c2,0,3.6,1.6,3.6,3.6s-1.6,3.6-3.6,3.6C122.8-282.5,121.2-284.1,121.2-286.1L121.2-286.1z"/>
	</g>
	<g id="CIRCLE_2_">
		
			<path style="fill:none;stroke:#808080;stroke-width:0.7087;stroke-linecap:round;stroke-linejoin:round;stroke-miterlimit:10;" d="
			M259-198.8c0-2,1.6-3.6,3.6-3.6s3.6,1.6,3.6,3.6s-1.6,3.6-3.6,3.6S259-196.8,259-198.8L259-198.8z"/>
	</g>
	<g id="CIRCLE_3_">
		
			<path style="fill:none;stroke:#808080;stroke-width:0.7087;stroke-linecap:round;stroke-linejoin:round;stroke-miterlimit:10;" d="
			M121.2-198.8c0-2,1.6-3.6,3.6-3.6c2,0,3.6,1.6,3.6,3.6s-1.6,3.6-3.6,3.6C122.8-195.2,121.2-196.8,121.2-198.8L121.2-198.8z"/>
	</g>
	<g id="LINE_195_">
		
			<polygon style="fill:none;stroke:#808080;stroke-width:0.7087;stroke-linecap:round;stroke-linejoin:round;stroke-miterlimit:10;" points="
			112,-168.3 112,-157.6 144.4,-157.6 144.4,-149.1 172.7,-149.1 172.7,-157.6 214.7,-157.6 214.7,-149.1 243,-149.1 243,-157.6 
			271.4,-157.6 271.4,-168.3 279.9,-168.3 279.9,-210.8 271.4,-210.8 271.4,-274 279.9,-274 279.9,-316.6 271.4,-316.6 
			271.4,-327.1 243,-327.1 243,-335.6 214.7,-335.6 214.7,-327.1 172.7,-327.1 172.7,-335.6 144.4,-335.6 144.4,-327.1 112,-327.1 
			112,-316.6 103.5,-316.6 103.5,-274 112,-274 112,-210.8 103.5,-210.8 103.5,-168.3 		"/>
	</g>
</g>
</svg>
